  0
SECTION
  2
HEADER
  9
$ACADVER
  1
AC1015
  9
$INSUNITS
 70
4
  0
ENDSEC
  0
SECTION
  2
TABLES
  0
TABLE
  2
LAYER
 70
12
  0
LAYER
  2
WALLS
 70
0
 62
7
  6
CONTINUOUS
  0
LAYER
  2
DOORS
 70
0
 62
3
  6
CONTINUOUS
  0
LAYER
  2
WINDOWS
 70
0
 62
4
  6
CONTINUOUS
  0
LAYER
  2
FLOOR-TILING
 70
0
 62
6
  6
CONTINUOUS
  0
LAYER
  2
KITCHEN-TILING
 70
0
 62
1
  6
CONTINUOUS
  0
LAYER
  2
PLASTERING
 70
0
 62
2
  6
CONTINUOUS
  0
LAYER
  2
CONCRETING-SLAB
 70
0
 62
5
  6
CONTINUOUS
  0
LAYER
  2
STEEL-COLUMNS
 70
0
 62
1
  6
CONTINUOUS
  0
LAYER
  2
MASONRY-WALLS
 70
0
 62
7
  6
CONTINUOUS
  0
LAYER
  2
ANNOTATIONS
 70
0
 62
2
  6
CONTINUOUS
  0
LAYER
  2
DIMENSIONS
 70
0
 62
3
  6
CONTINUOUS
  0
LAYER
  2
STAIRCASE
 70
0
 62
4
  6
CONTINUOUS
  0
ENDTABLE
  0
ENDSEC
  0
SECTION
  2
ENTITIES

  0
TEXT
  8
ANNOTATIONS
 10
50.0
 20
650.0
 30
0.0
 40
8.0
  1
BUILDING PLAN - 2 STOREY RESIDENTIAL
 50
0.0

  0
TEXT
  8
ANNOTATIONS
 10
50.0
 20
635.0
 30
0.0
 40
5.0
  1
Scale 1:100  |  Units: meters
 50
0.0

  0
TEXT
  8
ANNOTATIONS
 10
50.0
 20
622.0
 30
0.0
 40
4.0
  1
Total built-up area: 180 sqm (2 floors x 90 sqm each)
 50
0.0

  0
TEXT
  8
ANNOTATIONS
 10
50.0
 20
-30.0
 30
0.0
 40
4.0
  1
FLOOR 1 PLAN
 50
0.0

  0
TEXT
  8
ANNOTATIONS
 10
350.0
 20
-30.0
 30
0.0
 40
4.0
  1
FLOOR 2 PLAN
 50
0.0

  0
LWPOLYLINE
  8
MASONRY-WALLS
 90
4
 70
1
 43
0.23
 10
0.0
 20
0.0
 10
300.0
 20
0.0
 10
300.0
 20
280.0
 10
0.0
 20
280.0

  0
TEXT
  8
ANNOTATIONS
 10
120.0
 20
-15.0
 30
0.0
 40
4.0
  1
Outer Wall F1: 300x280 cm | Perimeter: 11.6m | Thickness: 23cm
 50
0.0

  0
LWPOLYLINE
  8
MASONRY-WALLS
 90
4
 70
1
 43
0.23
 10
10.0
 20
10.0
 10
290.0
 20
10.0
 10
290.0
 20
270.0
 10
10.0
 20
270.0

  0
LWPOLYLINE
  8
MASONRY-WALLS
 90
4
 70
1
 43
0.15
 10
150.0
 20
10.0
 10
160.0
 20
10.0
 10
160.0
 20
270.0
 10
150.0
 20
270.0

  0
TEXT
  8
ANNOTATIONS
 10
155.0
 20
140.0
 30
0.0
 40
3.5
  1
Internal Wall 1 | 23x260 cm
 50
0.0

  0
LWPOLYLINE
  8
MASONRY-WALLS
 90
4
 70
1
 43
0.15
 10
10.0
 20
130.0
 10
150.0
 20
130.0
 10
150.0
 20
140.0
 10
10.0
 20
140.0

  0
LWPOLYLINE
  8
MASONRY-WALLS
 90
4
 70
1
 43
0.15
 10
160.0
 20
130.0
 10
290.0
 20
130.0
 10
290.0
 20
140.0
 10
160.0
 20
140.0

  0
LWPOLYLINE
  8
FLOOR-TILING
 90
4
 70
1
 43
0.0
 10
11.0
 20
11.0
 10
149.0
 20
11.0
 10
149.0
 20
129.0
 10
11.0
 20
129.0

  0
TEXT
  8
ANNOTATIONS
 10
50.0
 20
70.0
 30
0.0
 40
5.0
  1
ROOM 1 - BEDROOM
 50
0.0

  0
TEXT
  8
ANNOTATIONS
 10
50.0
 20
58.0
 30
0.0
 40
3.5
  1
4.2m x 3.7m = 15.54 sqm
 50
0.0

  0
MTEXT
  8
ANNOTATIONS
 10
50.0
 20
48.0
 30
0.0
 40
3.0
  1
Flooring: 15.54 sqm | Plastering: 55.4 sqm | Tiling: 15.54 sqm
  0
LWPOLYLINE
  8
FLOOR-TILING
 90
4
 70
1
 43
0.0
 10
161.0
 20
11.0
 10
289.0
 20
11.0
 10
289.0
 20
129.0
 10
161.0
 20
129.0

  0
TEXT
  8
ANNOTATIONS
 10
195.0
 20
70.0
 30
0.0
 40
5.0
  1
ROOM 2 - BEDROOM
 50
0.0

  0
TEXT
  8
ANNOTATIONS
 10
195.0
 20
58.0
 30
0.0
 40
3.5
  1
4.2m x 3.7m = 15.54 sqm
 50
0.0

  0
LWPOLYLINE
  8
KITCHEN-TILING
 90
4
 70
1
 43
0.0
 10
11.0
 20
141.0
 10
149.0
 20
141.0
 10
149.0
 20
269.0
 10
11.0
 20
269.0

  0
TEXT
  8
ANNOTATIONS
 10
40.0
 20
205.0
 30
0.0
 40
5.0
  1
KITCHEN
 50
0.0

  0
TEXT
  8
ANNOTATIONS
 10
30.0
 20
193.0
 30
0.0
 40
3.5
  1
4.5m x 4.2m = 18.9 sqm
 50
0.0

  0
TEXT
  8
ANNOTATIONS
 10
15.0
 20
182.0
 30
0.0
 40
3.0
  1
Ceramic tiling: 18.9 sqm | Wall tiles: 30.2 sqm
 50
0.0

  0
LWPOLYLINE
  8
FLOOR-TILING
 90
4
 70
1
 43
0.0
 10
161.0
 20
141.0
 10
289.0
 20
141.0
 10
289.0
 20
269.0
 10
161.0
 20
269.0

  0
TEXT
  8
ANNOTATIONS
 10
195.0
 20
205.0
 30
0.0
 40
5.0
  1
ROOM 3 - LIVING ROOM
 50
0.0

  0
TEXT
  8
ANNOTATIONS
 10
195.0
 20
193.0
 30
0.0
 40
3.5
  1
4.2m x 4.2m = 17.64 sqm
 50
0.0

  0
LWPOLYLINE
  8
DOORS
 90
2
 70
0
 43
0.0
 10
60.0
 20
0.0
 10
95.0
 20
0.0

  0
ARC
  8
DOORS
 10
60.0
 20
0.0
 30
0.0
 40
35.0
 50
0.0
 51
90.0

  0
TEXT
  8
ANNOTATIONS
 10
62.0
 20
-12.0
 30
0.0
 40
3.0
  1
D1 - Main Entry 900mm
 50
0.0

  0
LWPOLYLINE
  8
DOORS
 90
2
 70
0
 43
0.0
 10
150.0
 20
50.0
 10
150.0
 20
80.0

  0
ARC
  8
DOORS
 10
150.0
 20
80.0
 30
0.0
 40
30.0
 50
180.0
 51
270.0

  0
TEXT
  8
ANNOTATIONS
 10
133.0
 20
63.0
 30
0.0
 40
3.0
  1
D2 - Internal 800mm
 50
0.0

  0
LWPOLYLINE
  8
DOORS
 90
2
 70
0
 43
0.0
 10
160.0
 20
175.0
 10
160.0
 20
205.0

  0
ARC
  8
DOORS
 10
160.0
 20
175.0
 30
0.0
 40
30.0
 50
270.0
 51
360.0

  0
TEXT
  8
ANNOTATIONS
 10
163.0
 20
188.0
 30
0.0
 40
3.0
  1
D3 - Kitchen 800mm
 50
0.0

  0
LWPOLYLINE
  8
DOORS
 90
2
 70
0
 43
0.0
 10
200.0
 20
130.0
 10
230.0
 20
130.0

  0
TEXT
  8
ANNOTATIONS
 10
202.0
 20
118.0
 30
0.0
 40
3.0
  1
D4 - Internal 800mm
 50
0.0

  0
LWPOLYLINE
  8
WINDOWS
 90
2
 70
0
 43
0.0
 10
190.0
 20
0.0
 10
250.0
 20
0.0

  0
TEXT
  8
ANNOTATIONS
 10
192.0
 20
-12.0
 30
0.0
 40
3.0
  1
W1 - 1500mm window
 50
0.0

  0
LWPOLYLINE
  8
WINDOWS
 90
2
 70
0
 43
0.0
 10
0.0
 20
50.0
 10
0.0
 20
110.0

  0
TEXT
  8
ANNOTATIONS
 10
-48.0
 20
78.0
 30
0.0
 40
3.0
  1
W2 - 1200mm
 50
0.0

  0
LWPOLYLINE
  8
WINDOWS
 90
2
 70
0
 43
0.0
 10
300.0
 20
50.0
 10
300.0
 20
110.0

  0
TEXT
  8
ANNOTATIONS
 10
303.0
 20
78.0
 30
0.0
 40
3.0
  1
W3 - 1200mm
 50
0.0

  0
LWPOLYLINE
  8
WINDOWS
 90
2
 70
0
 43
0.0
 10
300.0
 20
170.0
 10
300.0
 20
230.0

  0
TEXT
  8
ANNOTATIONS
 10
303.0
 20
198.0
 30
0.0
 40
3.0
  1
W4 - 1200mm
 50
0.0

  0
LWPOLYLINE
  8
WINDOWS
 90
2
 70
0
 43
0.0
 10
50.0
 20
280.0
 10
110.0
 20
280.0

  0
TEXT
  8
ANNOTATIONS
 10
52.0
 20
283.0
 30
0.0
 40
3.0
  1
W5 - 1500mm
 50
0.0

  0
LWPOLYLINE
  8
CONCRETING-SLAB
 90
4
 70
1
 43
0.0
 10
0.0
 20
0.0
 10
300.0
 20
0.0
 10
300.0
 20
280.0
 10
0.0
 20
280.0

  0
TEXT
  8
ANNOTATIONS
 10
50.0
 20
290.0
 30
0.0
 40
3.5
  1
Slab F1: 300x280cm | Area: 84 sqm | Thickness: 150mm
 50
0.0

  0
TEXT
  8
ANNOTATIONS
 10
50.0
 20
300.0
 30
0.0
 40
3.5
  1
Concrete volume F1: 12.6 cum (84sqm x 0.15m)
 50
0.0

  0
CIRCLE
  8
STEEL-COLUMNS
 10
20.0
 20
20.0
 30
0.0
 40
7.5

  0
TEXT
  8
ANNOTATIONS
 10
10.0
 20
30.0
 30
0.0
 40
3.0
  1
C1 300x300mm
 50
0.0

  0
CIRCLE
  8
STEEL-COLUMNS
 10
280.0
 20
20.0
 30
0.0
 40
7.5

  0
TEXT
  8
ANNOTATIONS
 10
270.0
 20
30.0
 30
0.0
 40
3.0
  1
C2 300x300mm
 50
0.0

  0
CIRCLE
  8
STEEL-COLUMNS
 10
20.0
 20
260.0
 30
0.0
 40
7.5

  0
TEXT
  8
ANNOTATIONS
 10
10.0
 20
248.0
 30
0.0
 40
3.0
  1
C3 300x300mm
 50
0.0

  0
CIRCLE
  8
STEEL-COLUMNS
 10
280.0
 20
260.0
 30
0.0
 40
7.5

  0
TEXT
  8
ANNOTATIONS
 10
270.0
 20
248.0
 30
0.0
 40
3.0
  1
C4 300x300mm
 50
0.0

  0
CIRCLE
  8
STEEL-COLUMNS
 10
155.0
 20
20.0
 30
0.0
 40
7.5

  0
TEXT
  8
ANNOTATIONS
 10
145.0
 20
30.0
 30
0.0
 40
3.0
  1
C5 300x300mm
 50
0.0

  0
CIRCLE
  8
STEEL-COLUMNS
 10
155.0
 20
135.0
 30
0.0
 40
7.5

  0
TEXT
  8
ANNOTATIONS
 10
145.0
 20
123.0
 30
0.0
 40
3.0
  1
C6 300x300mm
 50
0.0

  0
CIRCLE
  8
STEEL-COLUMNS
 10
155.0
 20
260.0
 30
0.0
 40
7.5

  0
TEXT
  8
ANNOTATIONS
 10
145.0
 20
248.0
 30
0.0
 40
3.0
  1
C7 300x300mm
 50
0.0

  0
LWPOLYLINE
  8
PLASTERING
 90
4
 70
1
 43
0.0
 10
11.0
 20
11.0
 10
149.0
 20
11.0
 10
149.0
 20
129.0
 10
11.0
 20
129.0

  0
LWPOLYLINE
  8
PLASTERING
 90
4
 70
1
 43
0.0
 10
161.0
 20
11.0
 10
289.0
 20
11.0
 10
289.0
 20
129.0
 10
161.0
 20
129.0

  0
LWPOLYLINE
  8
PLASTERING
 90
4
 70
1
 43
0.0
 10
11.0
 20
141.0
 10
149.0
 20
141.0
 10
149.0
 20
269.0
 10
11.0
 20
269.0

  0
LWPOLYLINE
  8
PLASTERING
 90
4
 70
1
 43
0.0
 10
161.0
 20
141.0
 10
289.0
 20
141.0
 10
289.0
 20
269.0
 10
161.0
 20
269.0

  0
TEXT
  8
ANNOTATIONS
 10
50.0
 20
310.0
 30
0.0
 40
3.5
  1
Plastering F1: total wall area ~145 sqm (internal + external faces)
 50
0.0

  0
LWPOLYLINE
  8
STAIRCASE
 90
4
 70
1
 43
0.0
 10
120.0
 20
130.0
 10
150.0
 20
130.0
 10
150.0
 20
140.0
 10
120.0
 20
140.0

  0
LINE
  8
STAIRCASE
 10
120.0
 20
130.0
 20
130.0
 11
120.0
 21
140.0

  0
LINE
  8
STAIRCASE
 10
123.0
 20
130.0
 20
130.0
 11
123.0
 21
140.0

  0
LINE
  8
STAIRCASE
 10
126.0
 20
130.0
 20
130.0
 11
126.0
 21
140.0

  0
LINE
  8
STAIRCASE
 10
129.0
 20
130.0
 20
130.0
 11
129.0
 21
140.0

  0
LINE
  8
STAIRCASE
 10
132.0
 20
130.0
 20
130.0
 11
132.0
 21
140.0

  0
LINE
  8
STAIRCASE
 10
135.0
 20
130.0
 20
130.0
 11
135.0
 21
140.0

  0
LINE
  8
STAIRCASE
 10
138.0
 20
130.0
 20
130.0
 11
138.0
 21
140.0

  0
LINE
  8
STAIRCASE
 10
141.0
 20
130.0
 20
130.0
 11
141.0
 21
140.0

  0
LINE
  8
STAIRCASE
 10
144.0
 20
130.0
 20
130.0
 11
144.0
 21
140.0

  0
LINE
  8
STAIRCASE
 10
147.0
 20
130.0
 20
130.0
 11
147.0
 21
140.0

  0
TEXT
  8
ANNOTATIONS
 10
122.0
 20
118.0
 30
0.0
 40
3.0
  1
STAIR - 10 treads 300mm
 50
0.0

  0
DIMENSION
  8
DIMENSIONS
  1

  3
Standard
 70
32
 10
0.0
 20
-20.0
 30
0.0
 11
150.0
 21
-20.0
 31
0.0
 12
0.0
 22
0.0
 32
0.0
 13
0.0
 23
0.0
 33
0.0
 14
300.0
 24
0.0
 34
0.0
 40
0.0
 42
300.0

  0
DIMENSION
  8
DIMENSIONS
  1

  3
Standard
 70
33
 10
-20.0
 20
0.0
 30
0.0
 11
-20.0
 21
140.0
 31
0.0
 12
0.0
 22
0.0
 32
0.0
 13
0.0
 23
0.0
 33
0.0
 14
0.0
 24
280.0
 34
0.0
 40
0.0
 42
280.0

  0
LWPOLYLINE
  8
MASONRY-WALLS
 90
4
 70
1
 43
0.23
 10
350.0
 20
0.0
 10
650.0
 20
0.0
 10
650.0
 20
280.0
 10
350.0
 20
280.0

  0
TEXT
  8
ANNOTATIONS
 10
450.0
 20
290.0
 30
0.0
 40
3.5
  1
Outer Wall F2: 300x280 cm | Perimeter: 11.6m
 50
0.0

  0
LWPOLYLINE
  8
MASONRY-WALLS
 90
4
 70
1
 43
0.15
 10
500.0
 20
10.0
 10
510.0
 20
10.0
 10
510.0
 20
270.0
 10
500.0
 20
270.0

  0
LWPOLYLINE
  8
MASONRY-WALLS
 90
4
 70
1
 43
0.15
 10
360.0
 20
140.0
 10
500.0
 20
140.0
 10
500.0
 20
150.0
 10
360.0
 20
150.0

  0
LWPOLYLINE
  8
MASONRY-WALLS
 90
4
 70
1
 43
0.15
 10
510.0
 20
140.0
 10
640.0
 20
140.0
 10
640.0
 20
150.0
 10
510.0
 20
150.0

  0
LWPOLYLINE
  8
FLOOR-TILING
 90
4
 70
1
 43
0.0
 10
361.0
 20
11.0
 10
499.0
 20
11.0
 10
499.0
 20
139.0
 10
361.0
 20
139.0

  0
TEXT
  8
ANNOTATIONS
 10
395.0
 20
75.0
 30
0.0
 40
5.0
  1
ROOM 4 - MASTER BED
 50
0.0

  0
TEXT
  8
ANNOTATIONS
 10
395.0
 20
63.0
 30
0.0
 40
3.5
  1
4.5m x 4.2m = 18.9 sqm
 50
0.0

  0
TEXT
  8
ANNOTATIONS
 10
360.0
 20
52.0
 30
0.0
 40
3.0
  1
Wardrobe alcove: 1.2m x 0.6m
 50
0.0

  0
LWPOLYLINE
  8
FLOOR-TILING
 90
4
 70
1
 43
0.0
 10
511.0
 20
11.0
 10
639.0
 20
11.0
 10
639.0
 20
139.0
 10
511.0
 20
139.0

  0
TEXT
  8
ANNOTATIONS
 10
545.0
 20
75.0
 30
0.0
 40
5.0
  1
ROOM 5 - BEDROOM
 50
0.0

  0
TEXT
  8
ANNOTATIONS
 10
545.0
 20
63.0
 30
0.0
 40
3.5
  1
3.9m x 4.2m = 16.38 sqm
 50
0.0

  0
LWPOLYLINE
  8
FLOOR-TILING
 90
4
 70
1
 43
0.0
 10
361.0
 20
151.0
 10
499.0
 20
151.0
 10
499.0
 20
269.0
 10
361.0
 20
269.0

  0
TEXT
  8
ANNOTATIONS
 10
390.0
 20
210.0
 30
0.0
 40
5.0
  1
BATHROOM / WC
 50
0.0

  0
TEXT
  8
ANNOTATIONS
 10
390.0
 20
198.0
 30
0.0
 40
3.5
  1
4.5m x 3.6m = 16.2 sqm
 50
0.0

  0
TEXT
  8
ANNOTATIONS
 10
360.0
 20
187.0
 30
0.0
 40
3.0
  1
Wall tiles: 30 sqm | Floor tiles: 16.2 sqm
 50
0.0

  0
LWPOLYLINE
  8
FLOOR-TILING
 90
4
 70
1
 43
0.0
 10
511.0
 20
151.0
 10
639.0
 20
151.0
 10
639.0
 20
269.0
 10
511.0
 20
269.0

  0
TEXT
  8
ANNOTATIONS
 10
545.0
 20
210.0
 30
0.0
 40
5.0
  1
ROOM 6 - STUDY/STORE
 50
0.0

  0
TEXT
  8
ANNOTATIONS
 10
545.0
 20
198.0
 30
0.0
 40
3.5
  1
3.9m x 3.6m = 14.04 sqm
 50
0.0

  0
LWPOLYLINE
  8
CONCRETING-SLAB
 90
4
 70
1
 43
0.0
 10
350.0
 20
0.0
 10
650.0
 20
0.0
 10
650.0
 20
280.0
 10
350.0
 20
280.0

  0
TEXT
  8
ANNOTATIONS
 10
400.0
 20
300.0
 30
0.0
 40
3.5
  1
Slab F2: 300x280cm | Area: 84 sqm | Thickness: 150mm
 50
0.0

  0
TEXT
  8
ANNOTATIONS
 10
400.0
 20
310.0
 30
0.0
 40
3.5
  1
Concrete volume F2: 12.6 cum (84sqm x 0.15m)
 50
0.0

  0
CIRCLE
  8
STEEL-COLUMNS
 10
370.0
 20
20.0
 30
0.0
 40
7.5

  0
TEXT
  8
ANNOTATIONS
 10
360.0
 20
30.0
 30
0.0
 40
3.0
  1
C8 300x300mm
 50
0.0

  0
CIRCLE
  8
STEEL-COLUMNS
 10
630.0
 20
20.0
 30
0.0
 40
7.5

  0
TEXT
  8
ANNOTATIONS
 10
620.0
 20
30.0
 30
0.0
 40
3.0
  1
C9 300x300mm
 50
0.0

  0
CIRCLE
  8
STEEL-COLUMNS
 10
505.0
 20
20.0
 30
0.0
 40
7.5

  0
TEXT
  8
ANNOTATIONS
 10
495.0
 20
30.0
 30
0.0
 40
3.0
  1
C10 300x300mm
 50
0.0

  0
CIRCLE
  8
STEEL-COLUMNS
 10
370.0
 20
145.0
 30
0.0
 40
7.5

  0
CIRCLE
  8
STEEL-COLUMNS
 10
505.0
 20
145.0
 30
0.0
 40
7.5

  0
CIRCLE
  8
STEEL-COLUMNS
 10
630.0
 20
145.0
 30
0.0
 40
7.5

  0
CIRCLE
  8
STEEL-COLUMNS
 10
370.0
 20
260.0
 30
0.0
 40
7.5

  0
CIRCLE
  8
STEEL-COLUMNS
 10
505.0
 20
260.0
 30
0.0
 40
7.5

  0
CIRCLE
  8
STEEL-COLUMNS
 10
630.0
 20
260.0
 30
0.0
 40
7.5

  0
LWPOLYLINE
  8
PLASTERING
 90
4
 70
1
 43
0.0
 10
361.0
 20
11.0
 10
499.0
 20
11.0
 10
499.0
 20
139.0
 10
361.0
 20
139.0

  0
LWPOLYLINE
  8
PLASTERING
 90
4
 70
1
 43
0.0
 10
511.0
 20
11.0
 10
639.0
 20
11.0
 10
639.0
 20
139.0
 10
511.0
 20
139.0

  0
LWPOLYLINE
  8
PLASTERING
 90
4
 70
1
 43
0.0
 10
361.0
 20
151.0
 10
499.0
 20
151.0
 10
499.0
 20
269.0
 10
361.0
 20
269.0

  0
LWPOLYLINE
  8
PLASTERING
 90
4
 70
1
 43
0.0
 10
511.0
 20
151.0
 10
639.0
 20
151.0
 10
639.0
 20
269.0
 10
511.0
 20
269.0

  0
LWPOLYLINE
  8
DOORS
 90
2
 70
0
 43
0.0
 10
410.0
 20
0.0
 10
445.0
 20
0.0

  0
LWPOLYLINE
  8
DOORS
 90
2
 70
0
 43
0.0
 10
560.0
 20
0.0
 10
595.0
 20
0.0

  0
LWPOLYLINE
  8
DOORS
 90
2
 70
0
 43
0.0
 10
500.0
 20
60.0
 10
500.0
 20
90.0

  0
LWPOLYLINE
  8
DOORS
 90
2
 70
0
 43
0.0
 10
430.0
 20
140.0
 10
460.0
 20
140.0

  0
LWPOLYLINE
  8
WINDOWS
 90
2
 70
0
 43
0.0
 10
350.0
 20
60.0
 10
350.0
 20
110.0

  0
LWPOLYLINE
  8
WINDOWS
 90
2
 70
0
 43
0.0
 10
650.0
 20
60.0
 10
650.0
 20
110.0

  0
LWPOLYLINE
  8
WINDOWS
 90
2
 70
0
 43
0.0
 10
650.0
 20
170.0
 10
650.0
 20
220.0

  0
LWPOLYLINE
  8
WINDOWS
 90
2
 70
0
 43
0.0
 10
400.0
 20
280.0
 10
450.0
 20
280.0

  0
LWPOLYLINE
  8
WINDOWS
 90
2
 70
0
 43
0.0
 10
560.0
 20
280.0
 10
620.0
 20
280.0

  0
TEXT
  8
ANNOTATIONS
 10
50.0
 20
335.0
 30
0.0
 40
5.0
  1
MATERIAL SCHEDULE SUMMARY
 50
0.0

  0
TEXT
  8
ANNOTATIONS
 10
50.0
 20
323.0
 30
0.0
 40
3.5
  1
Masonry walls: ~46.4m perimeter x 3m height x 0.23m = ~32 cum (both floors)
 50
0.0

  0
TEXT
  8
ANNOTATIONS
 10
50.0
 20
312.0
 30
0.0
 40
3.5
  1
Concrete slabs: 2 x 84sqm x 0.15m = 25.2 cum total
 50
0.0

  0
TEXT
  8
ANNOTATIONS
 10
50.0
 20
301.0
 30
0.0
 40
3.5
  1
Steel columns: 16 no. x 300x300mm, H=3m (foundation + floors)
 50
0.0

  0
TEXT
  8
ANNOTATIONS
 10
50.0
 20
290.0
 30
0.0
 40
3.5
  1
Floor tiling F1: Room1 15.54 + Room2 15.54 + Living 17.64 = 48.72 sqm
 50
0.0

  0
TEXT
  8
ANNOTATIONS
 10
50.0
 20
279.0
 30
0.0
 40
3.5
  1
Kitchen tiling F1: 18.9 sqm (ceramic)
 50
0.0

  0
TEXT
  8
ANNOTATIONS
 10
50.0
 20
268.0
 30
0.0
 40
3.5
  1
Floor tiling F2: Room4 18.9 + Room5 16.38 + Bath 16.2 + Study 14.04 = 65.52 sqm
 50
0.0

  0
TEXT
  8
ANNOTATIONS
 10
50.0
 20
257.0
 30
0.0
 40
3.5
  1
Plastering: all internal walls both floors ~290 sqm total
 50
0.0

  0
TEXT
  8
ANNOTATIONS
 10
50.0
 20
246.0
 30
0.0
 40
3.5
  1
Staircase: 10 treads, 2 flights, concrete + tiling
 50
0.0

  0
ENDSEC
  0
SECTION
  2
OBJECTS
  0
ENDSEC
  0
EOF
